<svg version="1.1" id="Layer_1" xmlns="http://www.w3.org/2000/svg" xmlns:xlink="http://www.w3.org/1999/xlink" x="0px" y="0px"
	 width="100%" viewBox="0 0 622 544" enable-background="new 0 0 622 544" xml:space="preserve">
<path fill="#FEFEFE" opacity="1.000000" stroke="none" 
	d="
M623.000000,3.000000 
	C623.000000,182.692505 623.000000,362.385010 622.540283,542.539856 
	C415.053711,543.001465 208.026855,543.000732 1.000000,543.000000 
	C1.000000,363.307495 1.000000,183.615005 1.459705,3.460824 
	C208.946274,2.999425 415.973145,2.999713 623.000000,3.000000 
M516.126221,196.392593 
	C534.599426,245.972824 535.223511,295.429260 516.036987,345.100891 
	C497.188019,393.898743 463.922394,429.278503 417.682312,452.864868 
	C386.016754,469.016937 351.993988,475.503784 316.760895,475.858246 
	C275.432281,476.274048 234.097534,476.114105 192.765396,476.139801 
	C175.493607,476.150513 169.755966,470.483429 169.171051,453.158142 
	C169.159805,452.825073 169.151062,452.491638 169.151962,452.158417 
	C169.368347,372.164215 169.596741,292.170044 169.771484,212.175735 
	C169.780533,208.026947 169.671158,203.823441 169.025070,199.739029 
	C167.695068,191.331177 162.728302,186.563354 154.349030,185.966934 
	C148.726410,185.566727 142.999710,185.642349 137.393921,186.222824 
	C128.937042,187.098541 124.432899,191.446381 123.124878,199.820953 
	C122.331772,204.898758 122.008438,210.103180 122.038765,215.247391 
	C122.190063,240.910645 122.772636,266.572998 122.753914,292.235321 
	C122.703560,361.231140 122.422493,430.226776 122.246109,499.222534 
	C122.241005,501.219513 122.270943,503.228394 122.474312,505.212250 
	C123.806419,518.206970 128.927353,523.043274 142.038574,523.699951 
	C144.366516,523.816589 146.703888,523.755249 149.036942,523.758301 
	C183.201416,523.803284 217.368179,524.108337 251.529663,523.808960 
	C281.683319,523.544739 311.845367,522.986145 341.977142,521.851807 
	C369.590393,520.812195 396.487305,515.926514 422.338318,505.454163 
	C531.238403,461.338531 595.051331,344.907928 575.222229,230.751526 
	C557.413025,128.224365 495.989349,61.131592 397.238251,28.677513 
	C373.155487,20.762833 347.853333,19.330456 322.616791,19.265490 
	C262.952026,19.111891 203.286667,19.179880 143.621536,19.178282 
	C128.600143,19.177879 122.315750,25.289478 121.879356,40.251873 
	C121.821159,42.247345 121.847153,44.257698 122.017624,46.245422 
	C123.215240,60.210365 128.917007,65.990036 142.899323,66.691673 
	C149.537521,67.024780 156.218964,66.380211 162.881042,66.372215 
	C209.213135,66.316559 255.546738,66.096458 301.876617,66.407867 
	C318.005219,66.516273 334.327484,66.641251 350.214111,69.049118 
	C428.419739,80.902397 484.477234,122.297058 516.126221,196.392593 
M86.883339,327.500031 
	C86.699837,276.006042 86.486298,224.512146 86.391960,173.018005 
	C86.384697,169.055679 86.996063,165.051361 87.711037,161.138031 
	C88.811592,155.114227 92.919991,152.042328 98.745438,151.193726 
	C101.204910,150.835449 103.731392,150.843369 106.227417,150.843445 
	C176.558243,150.845581 246.889099,150.843536 317.219910,150.901840 
	C338.821198,150.919754 359.046448,156.258606 377.871246,166.926331 
	C435.033875,199.319534 446.969238,259.717499 435.470947,301.335846 
	C420.887390,354.121399 378.023621,388.280579 322.631287,390.698914 
	C294.516998,391.926300 266.320374,391.270996 238.160919,391.459167 
	C232.163361,391.499268 226.148376,391.227509 220.172073,391.596252 
	C211.939774,392.104156 207.765289,395.661469 207.074509,403.881927 
	C206.410843,411.779785 206.376755,419.854584 207.234711,427.724182 
	C208.257141,437.102203 212.912460,440.670929 222.449524,440.721497 
	C249.113998,440.862946 275.780426,441.054016 302.443634,440.871918 
	C321.291382,440.743195 340.109863,439.625824 358.469086,434.875336 
	C394.732239,425.492188 426.822296,408.690369 449.908020,378.488129 
	C486.038727,331.219513 494.913208,278.271942 479.508759,221.085205 
	C464.558319,165.583725 414.547943,110.090172 338.491486,104.907593 
	C314.896881,103.299828 291.220001,102.356865 267.572449,102.170700 
	C198.246902,101.624908 128.917175,101.605042 59.588985,101.419106 
	C56.599560,101.411087 53.587490,101.639496 50.623672,102.038101 
	C44.880379,102.810493 40.940380,106.089958 40.038284,111.792450 
	C39.132935,117.515472 38.754730,123.378448 38.756660,129.179886 
	C38.783119,208.676727 38.927891,288.173523 39.012241,367.670319 
	C39.030983,385.334320 38.715271,403.001282 38.949020,420.661652 
	C39.137413,434.895081 43.577282,440.074707 57.756451,441.418243 
	C75.134003,443.064819 87.633392,436.693695 87.143806,416.493317 
	C86.433289,387.177368 86.912651,357.832550 86.883339,327.500031 
z"/>
<path fill="#E7E7EC" opacity="1.000000" stroke="none" 
	d="
M623.000000,2.499996 
	C415.973145,2.999713 208.946274,2.999425 1.459705,2.999569 
	C1.333333,2.333333 1.548027,1.216341 2.023962,1.090954 
	C3.114909,0.803541 4.333333,1.000000 5.500000,1.000000 
	C209.833328,1.000000 414.166656,0.997859 618.500000,1.041320 
	C620.000061,1.041639 621.500000,1.666659 623.000000,2.499996 
z"/>
<path fill="#1A212E" opacity="1.000000" stroke="none" 
	d="
M0.999996,543.500000 
	C208.026855,543.000732 415.053711,543.001465 622.540283,543.001099 
	C622.666687,543.666687 622.452026,544.783630 621.976013,544.909058 
	C620.885071,545.196472 619.666687,545.000000 618.500000,545.000000 
	C414.166656,545.000000 209.833328,545.002136 5.500009,544.958679 
	C3.999931,544.958374 2.499993,544.333374 0.999996,543.500000 
z"/>
<path fill="#020202" opacity="1.000000" stroke="none" 
	d="
M516.007568,196.026062 
	C484.477234,122.297058 428.419739,80.902397 350.214111,69.049118 
	C334.327484,66.641251 318.005219,66.516273 301.876617,66.407867 
	C255.546738,66.096458 209.213135,66.316559 162.881042,66.372215 
	C156.218964,66.380211 149.537521,67.024780 142.899323,66.691673 
	C128.917007,65.990036 123.215240,60.210365 122.017624,46.245422 
	C121.847153,44.257698 121.821159,42.247345 121.879356,40.251873 
	C122.315750,25.289478 128.600143,19.177879 143.621536,19.178282 
	C203.286667,19.179880 262.952026,19.111891 322.616791,19.265490 
	C347.853333,19.330456 373.155487,20.762833 397.238251,28.677513 
	C495.989349,61.131592 557.413025,128.224365 575.222229,230.751526 
	C595.051331,344.907928 531.238403,461.338531 422.338318,505.454163 
	C396.487305,515.926514 369.590393,520.812195 341.977142,521.851807 
	C311.845367,522.986145 281.683319,523.544739 251.529663,523.808960 
	C217.368179,524.108337 183.201416,523.803284 149.036942,523.758301 
	C146.703888,523.755249 144.366516,523.816589 142.038574,523.699951 
	C128.927353,523.043274 123.806419,518.206970 122.474312,505.212250 
	C122.270943,503.228394 122.241005,501.219513 122.246109,499.222534 
	C122.422493,430.226776 122.703560,361.231140 122.753914,292.235321 
	C122.772636,266.572998 122.190063,240.910645 122.038765,215.247391 
	C122.008438,210.103180 122.331772,204.898758 123.124878,199.820953 
	C124.432899,191.446381 128.937042,187.098541 137.393921,186.222824 
	C142.999710,185.642349 148.726410,185.566727 154.349030,185.966934 
	C162.728302,186.563354 167.695068,191.331177 169.025070,199.739029 
	C169.671158,203.823441 169.780533,208.026947 169.771484,212.175735 
	C169.596741,292.170044 169.368347,372.164215 169.151962,452.158417 
	C169.151062,452.491638 169.159805,452.825073 169.171051,453.158142 
	C169.755966,470.483429 175.493607,476.150513 192.765396,476.139801 
	C234.097534,476.114105 275.432281,476.274048 316.760895,475.858246 
	C351.993988,475.503784 386.016754,469.016937 417.682312,452.864868 
	C463.922394,429.278503 497.188019,393.898743 516.036987,345.100891 
	C535.223511,295.429260 534.599426,245.972824 516.007568,196.026062 
z"/>
<path fill="#020202" opacity="1.000000" stroke="none" 
	d="
M86.883942,328.000061 
	C86.912651,357.832550 86.433289,387.177368 87.143806,416.493317 
	C87.633392,436.693695 75.134003,443.064819 57.756451,441.418243 
	C43.577282,440.074707 39.137413,434.895081 38.949020,420.661652 
	C38.715271,403.001282 39.030983,385.334320 39.012241,367.670319 
	C38.927891,288.173523 38.783119,208.676727 38.756660,129.179886 
	C38.754730,123.378448 39.132935,117.515472 40.038284,111.792450 
	C40.940380,106.089958 44.880379,102.810493 50.623672,102.038101 
	C53.587490,101.639496 56.599560,101.411087 59.588985,101.419106 
	C128.917175,101.605042 198.246902,101.624908 267.572449,102.170700 
	C291.220001,102.356865 314.896881,103.299828 338.491486,104.907593 
	C414.547943,110.090172 464.558319,165.583725 479.508759,221.085205 
	C494.913208,278.271942 486.038727,331.219513 449.908020,378.488129 
	C426.822296,408.690369 394.732239,425.492188 358.469086,434.875336 
	C340.109863,439.625824 321.291382,440.743195 302.443634,440.871918 
	C275.780426,441.054016 249.113998,440.862946 222.449524,440.721497 
	C212.912460,440.670929 208.257141,437.102203 207.234711,427.724182 
	C206.376755,419.854584 206.410843,411.779785 207.074509,403.881927 
	C207.765289,395.661469 211.939774,392.104156 220.172073,391.596252 
	C226.148376,391.227509 232.163361,391.499268 238.160919,391.459167 
	C266.320374,391.270996 294.516998,391.926300 322.631287,390.698914 
	C378.023621,388.280579 420.887390,354.121399 435.470947,301.335846 
	C446.969238,259.717499 435.033875,199.319534 377.871246,166.926331 
	C359.046448,156.258606 338.821198,150.919754 317.219910,150.901840 
	C246.889099,150.843536 176.558243,150.845581 106.227417,150.843445 
	C103.731392,150.843369 101.204910,150.835449 98.745438,151.193726 
	C92.919991,152.042328 88.811592,155.114227 87.711037,161.138031 
	C86.996063,165.051361 86.384697,169.055679 86.391960,173.018005 
	C86.486298,224.512146 86.699837,276.006042 86.883942,328.000061 
z"/>
</svg>